<?xml version="1.0" standalone="no"?>
<!DOCTYPE svg PUBLIC "-//W3C//DTD SVG 20010904//EN"
 "http://www.w3.org/TR/2001/REC-SVG-20010904/DTD/svg10.dtd">
<svg version="1.0" xmlns="http://www.w3.org/2000/svg"
 width="166.000000pt" height="47.000000pt" viewBox="0 0 166.000000 47.000000"
 preserveAspectRatio="xMidYMid meet">
<metadata>
Created by potrace 1.14, written by Peter Selinger 2001-2017
</metadata>
<g transform="translate(0.000000,47.000000) scale(0.100000,-0.100000)"
fill="#000000" stroke="none">
<path d="M0 235 l0 -235 830 0 830 0 0 235 0 235 -830 0 -830 0 0 -235z m363
171 c40 -12 47 -12 61 2 15 15 16 10 15 -53 0 -58 -2 -67 -12 -51 -43 66 -89
96 -149 96 -38 0 -92 -30 -108 -59 -21 -41 -31 -129 -21 -186 17 -89 54 -125
129 -125 57 0 64 9 60 76 -3 52 -5 59 -28 65 -14 4 22 7 80 8 91 1 102 -1 80
-12 -21 -11 -26 -21 -30 -72 -5 -59 -5 -59 -45 -71 -63 -20 -193 -17 -240 5
-162 74 -165 285 -4 365 61 30 137 35 212 12z m377 -5 l-25 -7 -3 -177 c-2
-176 -2 -178 20 -187 16 -6 -5 -9 -72 -9 -52 1 -88 3 -80 6 27 11 30 26 30
188 0 88 -4 165 -8 171 -4 7 -18 14 -32 17 -14 2 25 4 85 5 61 0 99 -3 85 -7z
m300 2 c-45 -8 -50 -26 -50 -177 0 -192 -2 -186 75 -186 74 0 104 19 129 81 9
23 19 39 22 37 3 -3 2 -35 -2 -72 l-7 -66 -175 0 c-144 0 -173 2 -159 13 16
11 17 31 15 187 l-3 174 -25 7 c-14 4 27 7 90 7 63 -1 104 -3 90 -5z m580 -45
l-1 -53 -16 30 c-22 41 -42 54 -80 55 l-33 0 0 -175 c0 -173 0 -176 23 -185
15 -6 -8 -9 -78 -9 -70 0 -93 3 -77 9 22 9 22 12 22 185 l0 175 -31 0 c-42 0
-68 -16 -84 -53 l-14 -32 -1 53 0 52 185 0 185 0 0 -52z"/>
</g>
</svg>
